<svg xmlns="http://www.w3.org/2000/svg" width="1200" height="720" viewBox="0 0 1200 720" role="img" aria-label="Bookworm project preview">
  <defs>
    <linearGradient id="bg" x1="0" y1="0" x2="1" y2="1">
      <stop offset="0%" stop-color="#f8fafc"/>
      <stop offset="100%" stop-color="#e2e8f0"/>
    </linearGradient>
    <linearGradient id="accent" x1="0" y1="0" x2="1" y2="1">
      <stop offset="0%" stop-color="#7c3aed"/>
      <stop offset="100%" stop-color="#a78bfa"/>
    </linearGradient>
  </defs>
  <rect width="1200" height="720" rx="36" fill="url(#bg)"/>
  <rect x="95" y="95" width="1010" height="530" rx="30" fill="#ffffff" opacity="0.88"/>
  <rect x="145" y="140" width="180" height="34" rx="17" fill="url(#accent)" opacity="0.9"/>
  <rect x="145" y="205" width="520" height="18" rx="9" fill="#94a3b8" opacity="0.7"/>
  <rect x="145" y="235" width="450" height="18" rx="9" fill="#94a3b8" opacity="0.55"/>
  <rect x="145" y="265" width="490" height="18" rx="9" fill="#94a3b8" opacity="0.55"/>
  <rect x="145" y="345" width="170" height="190" rx="24" fill="#f3e8ff" stroke="#ddd6fe"/>
  <rect x="340" y="345" width="170" height="190" rx="24" fill="#f3e8ff" stroke="#ddd6fe"/>
  <rect x="535" y="345" width="170" height="190" rx="24" fill="#f3e8ff" stroke="#ddd6fe"/>
  <rect x="730" y="345" width="170" height="190" rx="24" fill="#f3e8ff" stroke="#ddd6fe"/>
  <text x="145" y="425" font-family="Arial, sans-serif" font-size="76" font-weight="700" fill="#5b21b6">Bookworm</text>
  <text x="145" y="480" font-family="Arial, sans-serif" font-size="28" fill="#64748b">Personal book collection manager</text>
  <text x="145" y="555" font-family="Arial, sans-serif" font-size="24" fill="#475569">React Native • Node.js • Express.js • MongoDB</text>
</svg>